<svg width="48" height="12" viewBox="0 0 48 12" fill="none" xmlns="http://www.w3.org/2000/svg">
<path d="M7.88693 7.73701V0.276367H2.19292L2.13856 4.62501C2.12497 5.73935 1.90754 6.85369 1.41832 7.73701H0.630127V11.0393H2.2201V9.19109H7.28899V11.0393H8.87897V7.73701H7.88693ZM3.63341 4.74732L3.68777 1.73045H6.29696V7.73701H3.00829C3.40239 6.93523 3.60623 5.98396 3.63341 4.74732Z" fill="#202020"/>
<path d="M15.9265 7.79137C15.546 7.79137 15.3693 7.58753 15.3693 7.22061V4.78809C15.3693 3.17093 14.3637 2.24685 12.6107 2.24685C10.844 2.24685 9.74328 3.2117 9.74328 4.73373V4.82886H11.2925V4.73373C11.2925 4.06784 11.7409 3.68734 12.5699 3.68734C13.3853 3.68734 13.8201 4.06784 13.8201 4.76091V5.12782L11.8768 5.39962C10.3956 5.60346 9.68892 6.24217 9.68892 7.34292C9.68892 8.59315 10.6402 9.35417 12.1486 9.35417C13.0048 9.35417 13.6978 9.09597 14.1871 8.60674C14.486 8.98725 14.9752 9.19109 15.6004 9.19109H16.3886V7.79137H15.9265ZM12.2573 8.03598C11.6322 8.03598 11.2245 7.76419 11.2245 7.32933C11.2245 6.94882 11.5507 6.67703 12.1486 6.59549L13.8201 6.35088V7.22061C13.5076 7.73701 12.9368 8.03598 12.2573 8.03598Z" fill="#202020"/>
<path d="M17.2459 9.19109H18.7815V6.48678H21.4858V9.19109H23.035V2.42351H21.4858V5.08706H18.7815V2.42351H17.2459V9.19109Z" fill="#202020"/>
<path d="M24.6113 9.19109H26.1469V6.48678H28.8512V9.19109H30.4004V2.42351H28.8512V5.08706H26.1469V2.42351H24.6113V9.19109Z" fill="#202020"/>
<path d="M35.4284 4.62501H33.5395V2.40992H32.0039V9.19109H35.4284C36.9369 9.19109 37.8474 8.28059 37.8474 6.976V6.8401C37.8474 5.53551 36.9504 4.62501 35.4284 4.62501ZM38.4453 2.40992V9.19109H39.9945V2.40992H38.4453ZM36.3117 6.96241C36.3117 7.47881 36.0128 7.80496 35.3605 7.80496H33.5395V6.01114H35.3605C36.0128 6.01114 36.3117 6.36447 36.3117 6.85369V6.96241Z" fill="#202020"/>
<path d="M47.2242 6.36447V5.01911C47.2242 3.36119 46.0827 2.24685 44.3297 2.24685C42.563 2.24685 41.3807 3.36119 41.3807 5.0327V6.5819C41.3807 8.267 42.563 9.35417 44.3568 9.35417C46.0012 9.35417 47.1427 8.44367 47.2242 7.08471H45.6886C45.675 7.54676 45.1179 7.92727 44.3704 7.92727C43.4463 7.92727 42.9164 7.41086 42.9164 6.52755V6.36447H47.2242ZM44.3297 3.67375C45.1722 3.67375 45.6886 4.21733 45.6886 5.08706V5.10065H42.9164V5.08706C42.9164 4.21733 43.4463 3.67375 44.3297 3.67375Z" fill="#202020"/>
</svg>
