<svg width="45" height="11" viewBox="0 0 45 11" fill="none" xmlns="http://www.w3.org/2000/svg">
<path d="M4.39371 9.25357C6.50008 9.25357 7.92698 7.89462 7.92698 5.92414V3.34213C7.92698 1.38524 6.48649 0.0126953 4.39371 0.0126953C2.31451 0.0126953 0.874023 1.37165 0.874023 3.34213V5.92414C0.874023 7.89462 2.30092 9.25357 4.39371 9.25357ZM4.39371 7.7859C3.17065 7.7859 2.464 7.09283 2.464 5.86978V3.42366C2.464 2.18702 3.17065 1.48036 4.39371 1.48036C5.61677 1.48036 6.33701 2.18702 6.33701 3.42366V5.86978C6.33701 7.05207 5.58959 7.7859 4.39371 7.7859Z" fill="#202020"/>
<path d="M15.144 7.69077V2.30932H13.5948V7.69077H10.9584V2.30932H9.42279V9.09049H14.5732V10.8707H16.1088V7.69077H15.144Z" fill="#202020"/>
<path d="M22.5337 6.26387V4.91851C22.5337 3.26059 21.3922 2.14625 19.6391 2.14625C17.8725 2.14625 16.6902 3.26059 16.6902 4.9321V6.48131C16.6902 8.16641 17.8725 9.25357 19.6663 9.25357C21.3106 9.25357 22.4522 8.34307 22.5337 6.98412H20.9981C20.9845 7.44616 20.4273 7.82667 19.6799 7.82667C18.7558 7.82667 18.2258 7.31027 18.2258 6.42695V6.26387H22.5337ZM19.6391 3.57315C20.4817 3.57315 20.9981 4.11673 20.9981 4.98646V5.00005H18.2258V4.98646C18.2258 4.11673 18.7558 3.57315 19.6391 3.57315Z" fill="#202020"/>
<path d="M23.8882 9.09049H25.4238V6.38618H28.1281V9.09049H29.6773V2.32291H28.1281V4.98646H25.4238V2.32291H23.8882V9.09049Z" fill="#202020"/>
<path d="M35.0858 5.67952L37.1786 2.54035V2.30932H35.4935L33.6997 5.01364H32.7892V2.30932H31.2536V9.09049H32.7892V6.38618H33.7269L35.6022 9.09049H37.2873V8.85947L35.0858 5.67952Z" fill="#202020"/>
<path d="M44.0281 7.69077C43.6476 7.69077 43.4709 7.48693 43.4709 7.12001V4.68749C43.4709 3.07034 42.4653 2.14625 40.7122 2.14625C38.9456 2.14625 37.8448 3.11111 37.8448 4.63313V4.72826H39.394V4.63313C39.394 3.96725 39.8425 3.58674 40.6715 3.58674C41.4868 3.58674 41.9217 3.96725 41.9217 4.66031V5.02723L39.9784 5.29902C38.4971 5.50286 37.7905 6.14157 37.7905 7.24232C37.7905 8.49256 38.7417 9.25357 40.2502 9.25357C41.1063 9.25357 41.7994 8.99537 42.2886 8.50615C42.5876 8.88665 43.0768 9.09049 43.7019 9.09049H44.4901V7.69077H44.0281ZM40.3589 7.93539C39.7338 7.93539 39.3261 7.66359 39.3261 7.22873C39.3261 6.84822 39.6522 6.57643 40.2502 6.4949L41.9217 6.25029V7.12001C41.6091 7.63642 41.0384 7.93539 40.3589 7.93539Z" fill="#202020"/>
</svg>
