<svg width="58" height="12" viewBox="0 0 58 12" fill="none" xmlns="http://www.w3.org/2000/svg">
<path d="M3.66923 9.70735C5.78737 9.70735 7.22224 8.34081 7.22224 6.35932V3.76289C7.22224 1.79507 5.77371 0.414859 3.66923 0.414859C1.57842 0.414859 0.129883 1.7814 0.129883 3.76289V6.35932C0.129883 8.34081 1.56475 9.70735 3.66923 9.70735ZM3.66923 8.23149C2.43934 8.23149 1.72874 7.53455 1.72874 6.30466V3.84488C1.72874 2.60133 2.43934 1.89073 3.66923 1.89073C4.89912 1.89073 5.62339 2.60133 5.62339 3.84488V6.30466C5.62339 7.49355 4.87179 8.23149 3.66923 8.23149Z" fill="#202020"/>
<path d="M11.9241 3.06595C11.1998 3.06595 10.5166 3.31193 10.0656 3.72189C10.1066 2.68332 10.6259 2.19137 11.8011 2.02738L13.0173 1.8634C14.0286 1.72674 14.4796 1.27578 14.4796 0.360197V0.0322266H12.949V0.237208C12.949 0.414859 12.826 0.496851 12.5254 0.537847L11.4732 0.660836C9.437 0.906814 8.63074 2.09571 8.63074 4.89712V6.50964C8.63074 8.51846 9.76497 9.70735 11.6781 9.70735C13.4956 9.70735 14.6025 8.62779 14.6025 6.85128V5.86737C14.6025 4.17285 13.5366 3.06595 11.9241 3.06595ZM13.0583 6.79662C13.0583 7.7532 12.5801 8.25882 11.6508 8.25882C10.6806 8.25882 10.1749 7.68487 10.1749 6.55064V5.1431C10.5986 4.71947 11.1315 4.48716 11.6918 4.48716C12.6211 4.48716 13.0583 4.96545 13.0583 5.97669V6.79662Z" fill="#202020"/>
<path d="M20.4055 2.72432L18.6564 7.61654L16.8252 2.72432H15.24V2.95663L17.8638 9.65269L17.8091 9.80301C17.6041 10.3906 17.3035 10.459 16.8799 10.459H15.7866V11.8665H17.0165C18.2054 11.8665 18.8614 11.3609 19.2713 10.254L21.9907 2.95663V2.72432H20.4055Z" fill="#202020"/>
<path d="M27.1041 2.72432V5.99036C26.5984 6.05868 26.1748 6.09968 25.8332 6.09968C24.9449 6.09968 24.494 5.77171 24.494 5.11577V2.72432H22.9498V5.29342C22.9498 6.6463 23.961 7.49355 25.5872 7.49355C26.0518 7.49355 26.5711 7.43889 27.1041 7.34324V9.54337H28.6619V2.72432H27.1041Z" fill="#202020"/>
<path d="M35.9096 6.70096V5.34808C35.9096 3.6809 34.7617 2.56033 32.9989 2.56033C31.2224 2.56033 30.0335 3.6809 30.0335 5.36175V6.91961C30.0335 8.61412 31.2224 9.70735 33.0262 9.70735C34.6797 9.70735 35.8276 8.79177 35.9096 7.42523H34.3654C34.3518 7.88985 33.7915 8.27248 33.0399 8.27248C32.1106 8.27248 31.5777 7.7532 31.5777 6.86494V6.70096H35.9096ZM32.9989 3.9952C33.8461 3.9952 34.3654 4.54182 34.3654 5.41641V5.43007H31.5777V5.41641C31.5777 4.54182 32.1106 3.9952 32.9989 3.9952Z" fill="#202020"/>
<path d="M37.2717 9.54337H38.8159V6.82395H41.5353V9.54337H43.0932V2.73798H41.5353V5.41641H38.8159V2.73798H37.2717V9.54337Z" fill="#202020"/>
<path d="M44.6782 9.54337H46.0858L48.9145 5.17043V9.54337H50.4177V2.72432H49.0102L46.1678 7.09726V2.72432H44.6782V9.54337Z" fill="#202020"/>
<path d="M57.6622 6.70096V5.34808C57.6622 3.6809 56.5143 2.56033 54.7515 2.56033C52.975 2.56033 51.7861 3.6809 51.7861 5.36175V6.91961C51.7861 8.61412 52.975 9.70735 54.7788 9.70735C56.4323 9.70735 57.5802 8.79177 57.6622 7.42523H56.118C56.1044 7.88985 55.5441 8.27248 54.7925 8.27248C53.8632 8.27248 53.3303 7.7532 53.3303 6.86494V6.70096H57.6622ZM54.7515 3.9952C55.5987 3.9952 56.118 4.54182 56.118 5.41641V5.43007H53.3303V5.41641C53.3303 4.54182 53.8632 3.9952 54.7515 3.9952Z" fill="#202020"/>
</svg>
