<svg width="19" height="19" viewBox="0 0 19 19" fill="none" xmlns="http://www.w3.org/2000/svg">
<path fill-rule="evenodd" clip-rule="evenodd" d="M9.1971 0.333496H9.20153C14.0907 0.333496 18.0666 4.31158 18.0666 9.20078C18.0666 14.09 14.0907 18.0681 9.20153 18.0681C7.39815 18.0681 5.72556 17.5316 4.32342 16.6027L0.915055 17.6923L2.02014 14.3981C0.957175 12.9383 0.332031 11.1405 0.332031 9.20078C0.332031 4.31047 4.3079 0.333496 9.1971 0.333496ZM12.6204 14.1066C13.2977 13.9603 14.1467 13.4593 14.3606 12.8552C14.5746 12.25 14.5746 11.7346 14.5125 11.6249C14.4624 11.5378 14.3438 11.4807 14.1669 11.3956C14.1209 11.3734 14.0708 11.3493 14.017 11.3223C13.7565 11.1926 12.4896 10.5663 12.2502 10.4832C12.0152 10.3945 11.7913 10.4256 11.614 10.6761C11.5803 10.7233 11.5466 10.7706 11.5131 10.8177C11.2992 11.1186 11.0928 11.4088 10.9212 11.5938C10.7649 11.7601 10.51 11.7811 10.2961 11.6925C10.2728 11.6828 10.246 11.672 10.2161 11.6599C9.87739 11.5231 9.12611 11.2196 8.21671 10.41C7.44969 9.72726 6.92874 8.87711 6.778 8.62218C6.63 8.36644 6.75766 8.21648 6.87565 8.07788C6.87783 8.07531 6.88001 8.07275 6.88219 8.07019C6.95826 7.97607 7.03208 7.8977 7.10627 7.81893C7.15964 7.76227 7.21319 7.70541 7.26792 7.64234C7.27604 7.63298 7.28395 7.62389 7.29165 7.61504C7.40784 7.48144 7.47703 7.40188 7.55499 7.23556C7.64367 7.06375 7.58049 6.88641 7.51731 6.75562C7.47384 6.66402 7.20529 6.01246 6.97477 5.45315C6.87614 5.21383 6.78446 4.99141 6.72036 4.83696C6.54856 4.42574 6.41776 4.41022 6.15729 4.39914C6.14931 4.39874 6.14124 4.39833 6.1331 4.39792C6.05077 4.39375 5.96009 4.38916 5.86023 4.38916C5.52106 4.38916 5.16748 4.48892 4.95355 4.70727C4.94608 4.71491 4.93829 4.72283 4.9302 4.73106C4.65652 5.00939 4.04688 5.62941 4.04688 6.86535C4.04688 8.10368 4.92552 9.30211 5.08809 9.52385C5.09257 9.52997 5.09651 9.53533 5.09986 9.53994C5.10965 9.55279 5.12808 9.57949 5.15492 9.61835C5.48686 10.0991 7.10368 12.4405 9.51466 13.4393C11.5519 14.2839 12.1571 14.2052 12.6204 14.1066Z" fill="#47AF53"/>
</svg>
