<svg width="48" height="105" viewBox="0 0 48 105" fill="none" xmlns="http://www.w3.org/2000/svg">
<path fill-rule="evenodd" clip-rule="evenodd" d="M7.99301 72.3845C8.40544 73.2152 8.83781 74.0353 9.28976 74.8441L8.07364 75.5237C7.61064 74.6951 7.16773 73.855 6.74525 73.004L7.99301 72.3845ZM10.7049 77.2375C11.196 78.0235 11.7064 78.7976 12.2357 79.5589L11.0918 80.3541C10.5495 79.574 10.0266 78.781 9.52346 77.9756L10.7049 77.2375ZM5.76447 67.2899C6.09492 68.1573 6.44587 69.0156 6.81697 69.864L5.54063 70.4223C5.16052 69.5532 4.80108 68.6742 4.46265 67.7859L5.76447 67.2899ZM13.8781 81.8018C14.4433 82.5352 15.027 83.2552 15.6289 83.9612L14.5687 84.865C13.952 84.1415 13.3539 83.4037 12.7747 82.6522L13.8781 81.8018ZM4.03698 62.0052C4.28299 62.9009 4.54993 63.789 4.83749 64.6688L3.51333 65.1016C3.21887 64.2007 2.94553 63.2913 2.69364 62.3741L4.03698 62.0052ZM17.4848 86.0325C18.119 86.7062 18.7709 87.3653 19.44 88.0091L18.474 89.0129C17.7884 88.3532 17.1204 87.6778 16.4705 86.9875L17.4848 86.0325ZM2.82075 56.5776C2.98074 57.493 3.16197 58.4022 3.36411 59.3046L2.00471 59.6091C1.79776 58.6852 1.61223 57.7544 1.44846 56.8174L2.82075 56.5776ZM21.4892 89.8859C22.1861 90.4933 22.8996 91.085 23.6294 91.6604L22.7669 92.7544C22.0191 92.1648 21.288 91.5585 20.5739 90.9361L21.4892 89.8859ZM2.12188 51.06C2.19547 51.9877 2.29053 52.9106 2.40672 53.8282L1.02467 54.0032C0.905745 53.0641 0.808467 52.1195 0.733154 51.1702L2.12188 51.06ZM25.8567 93.3293C26.6087 93.8645 27.3763 94.3832 28.1591 94.8846L27.4077 96.0577C26.6058 95.544 25.8194 95.0126 25.049 94.4643L25.8567 93.3293ZM1.93956 45.5002C1.92714 46.4301 1.93615 47.3565 1.96629 48.2789L0.573949 48.3244C0.543107 47.3806 0.533892 46.4328 0.546602 45.4816L1.93956 45.5002ZM2.26781 39.9429C2.17063 40.871 2.0949 41.7969 2.04033 42.7202L0.649671 42.638C0.705477 41.6937 0.782922 40.7468 0.882297 39.7978L2.26781 39.9429ZM30.5346 96.3262C31.3355 96.7861 32.1509 97.2287 32.9805 97.6533L32.3458 98.8934C31.4962 98.4585 30.6612 98.0053 29.8409 97.5343L30.5346 96.3262ZM3.09326 34.4432C2.91429 35.3577 2.75644 36.2712 2.61946 37.1834L1.24182 36.9764C1.38186 36.044 1.54319 35.1102 1.7261 34.1756L3.09326 34.4432ZM35.4885 98.8624C36.327 99.2423 37.1789 99.6046 38.0439 99.9485L37.5291 101.243C36.6439 100.891 35.772 100.52 34.9135 100.131L35.4885 98.8624ZM4.40057 29.0273C4.14243 29.925 3.90512 30.8227 3.68837 31.7202L2.33422 31.3931C2.55567 30.4762 2.79809 29.5591 3.06175 28.6423L4.40057 29.0273ZM40.6526 100.916C41.5265 101.218 42.4127 101.501 43.311 101.765L42.9175 103.102C41.9989 102.831 41.0924 102.542 40.1984 102.233L40.6526 100.916ZM6.16415 23.7457C5.83093 24.6203 5.51811 25.496 5.22544 26.3724L3.90408 25.9311C4.20291 25.0363 4.52225 24.1423 4.86235 23.2497L6.16415 23.7457ZM45.9895 102.489C46.4415 102.601 46.8964 102.708 47.3541 102.81L47.0507 104.17C46.5829 104.065 46.118 103.956 45.6559 103.842L45.9895 102.489ZM8.35624 18.6288C7.95438 19.4716 7.57221 20.3163 7.2095 21.1626L5.92907 20.6138C6.29913 19.7504 6.68896 18.8887 7.09878 18.0292L8.35624 18.6288ZM10.9512 13.6932C10.4847 14.5031 10.0373 15.3157 9.60859 16.1306L8.37569 15.482C8.81268 14.6513 9.26874 13.8231 9.74409 12.9979L10.9512 13.6932ZM13.9179 8.96088C13.3892 9.7392 12.879 10.5208 12.387 11.3054L11.2068 10.5654C11.7078 9.76633 12.2273 8.97041 12.7656 8.17807L13.9179 8.96088ZM11.7774 3.44559L19.3644 0.77593L17.8829 8.6813L15.536 6.66876C15.5303 6.67653 15.5246 6.6843 15.5189 6.69206L14.395 5.86892C14.4218 5.83237 14.4486 5.79583 14.4754 5.7593L11.7774 3.44559Z" fill="#BDBFC8"/>
</svg>
