<svg width="121" height="75" viewBox="0 0 121 75" fill="none" xmlns="http://www.w3.org/2000/svg">
<path fill-rule="evenodd" clip-rule="evenodd" d="M84.7968 52.0064C85.7554 51.2712 86.7009 50.5196 87.6325 49.7522L88.4713 50.7413C87.5169 51.5275 86.5483 52.2974 85.5664 53.0505L84.7968 52.0064ZM90.3864 47.4017C91.2899 46.6028 92.1787 45.7887 93.052 44.96L94.0237 45.8315C93.129 46.6806 92.2183 47.5147 91.2926 48.3332L90.3864 47.4017ZM78.9072 56.2072C79.9116 55.5422 80.9047 54.8595 81.8856 54.16L82.5844 55.2564C81.5797 55.9729 80.5626 56.6721 79.5339 57.3532L78.9072 56.2072ZM95.6217 42.4336C96.4609 41.5786 97.2838 40.7097 98.0897 39.8275L99.1857 40.5725C98.3599 41.4764 97.5166 42.3668 96.6567 43.2428L95.6217 42.4336ZM72.7772 59.9667C73.8179 59.3774 74.8488 58.7696 75.8693 58.1437L76.4228 59.3364C75.3778 59.9772 74.3222 60.5997 73.2566 61.2031L72.7772 59.9667ZM100.451 37.1472C101.218 36.2441 101.967 35.3284 102.698 34.4008L103.907 35.0116C103.159 35.9621 102.391 36.9004 101.605 37.8259L100.451 37.1472ZM66.4619 63.2566C67.5286 62.748 68.5873 62.2199 69.6373 61.673L70.0418 62.95C68.9668 63.5099 67.883 64.0505 66.7911 64.5712L66.4619 63.2566ZM104.824 31.5958C105.511 30.6535 106.179 29.7001 106.828 28.7361L108.139 29.207C107.475 30.1947 106.79 31.1717 106.086 32.1373L104.824 31.5958ZM60.023 66.0507C61.1071 65.6259 62.1849 65.1808 63.2557 64.7162L63.5093 66.0653C62.4134 66.5408 61.3103 66.9962 60.2009 67.431L60.023 66.0507ZM108.704 25.8271C109.305 24.8555 109.885 23.8743 110.445 22.8839L111.846 23.2113C111.272 24.2259 110.677 25.2311 110.062 26.2265L108.704 25.8271ZM53.5165 68.3318C54.6062 67.9942 55.6911 67.636 56.7706 67.2577L56.8728 68.666C55.7683 69.0531 54.6584 69.4196 53.5437 69.7649L53.5165 68.3318ZM46.9949 70.0893C48.0855 69.8392 49.1728 69.5679 50.2563 69.2759L50.2089 70.7307C49.1008 71.0293 47.9888 71.3067 46.8736 71.5625L46.9949 70.0893ZM112.05 19.9088C112.561 18.9156 113.051 17.9141 113.519 16.9047L114.994 17.0874C114.515 18.121 114.013 19.1466 113.49 20.1639L112.05 19.9088ZM40.5234 71.316C41.6009 71.1548 42.6766 70.9722 43.7499 70.7688L43.556 72.2572C42.4588 72.4651 41.3592 72.6517 40.258 72.8165L40.5234 71.316ZM114.847 13.8815C115.263 12.8799 115.657 11.8713 116.03 10.8561L117.564 10.8955C117.183 11.9344 116.779 12.9668 116.354 13.9922L114.847 13.8815ZM34.1331 72.0178C35.1936 71.944 36.2537 71.8487 37.3126 71.7325L36.9771 73.2421C35.8952 73.3608 34.8123 73.4582 33.7291 73.5336L34.1331 72.0178ZM117.072 7.82069C117.394 6.81244 117.695 5.79842 117.973 4.77909L119.552 4.67855C119.268 5.72094 118.96 6.75812 118.63 7.78958L117.072 7.82069ZM27.884 72.202C28.9202 72.2136 29.9571 72.204 30.9939 72.1735L30.5235 73.6926C29.4648 73.7237 28.4063 73.7335 27.3487 73.7216L27.884 72.202ZM118.727 1.76414C118.842 1.25936 118.951 0.753399 119.054 0.24633L120.658 0.0447578C120.552 0.562952 120.44 1.08007 120.323 1.59606L118.727 1.76414ZM21.8129 71.8853C22.8142 71.9792 23.8172 72.0523 24.8213 72.1048L24.2235 73.6225C23.199 73.5689 22.1759 73.4944 21.1547 73.3986L21.8129 71.8853ZM15.9399 71.0878C16.905 71.2603 17.8727 71.4124 18.8423 71.5443L18.1259 73.0508C17.1374 72.9164 16.1512 72.7614 15.1678 72.5857L15.9399 71.0878ZM10.292 69.8333C11.2223 70.0814 12.1559 70.3093 13.0923 70.5174L12.2669 72.0045C11.3132 71.7926 10.3626 71.5605 9.4155 71.308L10.292 69.8333ZM3.90645 74.1025L0.512415 67.3405L9.82511 65.8792L7.55004 69.0402C7.55935 69.0431 7.56864 69.046 7.57795 69.0489L6.65319 70.5096C6.60944 70.496 6.56569 70.4823 6.52195 70.4686L3.90645 74.1025Z" fill="#BDBFC8"/>
</svg>
