<svg width="145" height="60" viewBox="0 0 145 60" fill="none" xmlns="http://www.w3.org/2000/svg">
<path d="M104.594 14.5306L105.11 13.6742L104.594 14.5306ZM144.05 59.8869L142.702 48.4189L133.445 55.3204L144.05 59.8869ZM1.68245 15.2378C2.09448 14.8257 2.54906 14.4181 3.04524 14.0159L1.78568 12.4623C1.24062 12.9042 0.73376 13.358 0.268232 13.8236L1.68245 15.2378ZM6.10037 11.9139C7.11933 11.31 8.23294 10.7269 9.43409 10.1675L8.58969 8.35445C7.33592 8.93839 6.16301 9.5519 5.08061 10.1935L6.10037 11.9139ZM12.9427 8.69457C14.0882 8.2603 15.2896 7.84552 16.5422 7.45171L15.9423 5.54379C14.6557 5.9483 13.4178 6.37557 12.2337 6.82444L12.9427 8.69457ZM20.2109 6.39666C21.4173 6.07991 22.6605 5.78135 23.9369 5.50199L23.5093 3.54824C22.2072 3.83322 20.9372 4.13819 19.703 4.46223L20.2109 6.39666ZM27.7017 4.7514C28.9406 4.52754 30.2048 4.32107 31.4912 4.13277L31.2016 2.15386C29.8936 2.3453 28.6075 2.55535 27.3461 2.78327L27.7017 4.7514ZM35.2942 3.63698C36.5509 3.49274 37.8249 3.36551 39.1139 3.25593L38.9444 1.26312C37.6362 1.37434 36.3426 1.50352 35.0661 1.65002L35.2942 3.63698ZM42.9451 2.98521C44.2139 2.91354 45.4942 2.8589 46.7836 2.82187L46.7262 0.822697C45.4183 0.860252 44.1196 0.915677 42.8323 0.988391L42.9451 2.98521ZM50.6258 2.76428C51.9007 2.76262 53.1823 2.77832 54.4683 2.81189L54.5205 0.812576C53.2161 0.778518 51.9163 0.762602 50.6232 0.76428L50.6258 2.76428ZM58.3077 2.9652C59.5838 3.03389 60.8622 3.12051 62.1409 3.22558L62.3047 1.2323C61.007 1.12567 59.7098 1.03777 58.4152 0.968087L58.3077 2.9652ZM65.9642 3.59534C67.2364 3.73714 68.5069 3.89773 69.7737 4.07762L70.0549 2.09748C68.7679 1.91472 67.4775 1.75162 66.1857 1.60765L65.9642 3.59534ZM73.5653 4.67641C74.828 4.89636 76.0849 5.13625 77.334 5.39659L77.7421 3.43867C76.4709 3.17372 75.1924 2.92971 73.9085 2.70608L73.5653 4.67641ZM81.0741 6.24393C82.3199 6.5494 83.5555 6.87628 84.779 7.22508L85.3273 5.30172C84.0793 4.9459 82.8196 4.61268 81.5504 4.30147L81.0741 6.24393ZM88.4407 8.34759C89.6593 8.74831 90.863 9.17223 92.0497 9.6199L92.7557 7.74863C91.5412 7.29049 90.3104 6.85705 89.0654 6.44767L88.4407 8.34759ZM95.5948 11.0512C96.7717 11.559 97.9284 12.0922 99.0624 12.6512L99.9468 10.8574C98.7813 10.2828 97.594 9.73555 96.3872 9.21485L95.5948 11.0512ZM102.436 14.4301C102.99 14.7422 103.537 15.0611 104.078 15.387L105.11 13.6742C104.553 13.3381 103.989 13.0093 103.418 12.6878L102.436 14.4301ZM104.078 15.387C104.615 15.711 105.147 16.0412 105.672 16.377L106.749 14.6919C106.209 14.3468 105.663 14.0075 105.11 13.6742L104.078 15.387ZM108.777 18.4749C109.803 19.2062 110.803 19.958 111.779 20.727L113.017 19.156C112.017 18.3679 110.99 17.5968 109.937 16.8463L108.777 18.4749ZM114.672 23.1152C115.628 23.9416 116.558 24.7827 117.463 25.6348L118.834 24.179C117.91 23.3081 116.958 22.4478 115.98 21.602L114.672 23.1152ZM120.144 28.2655C121.032 29.1725 121.893 30.0874 122.726 31.0058L124.207 29.6617C123.358 28.7253 122.48 27.792 121.573 26.8661L120.144 28.2655ZM125.202 33.8347C126.027 34.811 126.822 35.7865 127.587 36.7562L129.157 35.5172C128.379 34.531 127.57 33.5383 126.73 32.544L125.202 33.8347ZM129.875 39.7515C130.641 40.7872 131.373 41.8097 132.071 42.8125L133.712 41.6701C133.004 40.6524 132.261 39.6143 131.483 38.5621L129.875 39.7515ZM134.182 45.9355C134.904 47.0342 135.582 48.0977 136.218 49.1162L137.915 48.0577C137.272 47.0274 136.585 45.9504 135.854 44.837L134.182 45.9355ZM138.191 52.352C138.901 53.5415 139.54 54.6337 140.11 55.6095L141.836 54.6005C141.267 53.6254 140.624 52.5254 139.908 51.3265L138.191 52.352Z" fill="#BDBFC8"/>
</svg>
